# xmcd
#
# Track frame offsets: 
#        150
#        7453
#        26997
#        45501
#        63454
#        80821
#        99626
#        116079
#        129149
#        147144
#        176423
#        191192
#        204947
#        222730
#        245018
#        264818
#
# Disc length: 3997 seconds
#
# Revision: 0
# Processed by: cddbd v1.5.2PL0 Copyright (c) Steve Scherf et al.
# Submitted via: ExactAudioCopy v1.3
#
DISCID=f10f9b10
DTITLE=Jose Luis Pardo and The Mojo Workers - That's Right
DYEAR=2007
DGENRE=Blues
TTITLE0=That's Right
TTITLE1=Cansado
TTITLE2=Is You Is (Or Is You Ain't)
TTITLE3=Stopping Me Cold
TTITLE4=Ain't No Love
TTITLE5=Mi Mujer se Enojo
TTITLE6=Minor Swing
TTITLE7=Me Estas Llamando
TTITLE8=I'm Just Your Fool
TTITLE9=Kidney Stew
TTITLE10=They're Red Hot
TTITLE11=Jump Jive And Wail
TTITLE12=Running Out Of Time
TTITLE13=Poco A Poco
TTITLE14=Caldonia
TTITLE15=Vamonos A Chicago
EXTD=
EXTT0=
EXTT1=
EXTT2=
EXTT3=
EXTT4=
EXTT5=
EXTT6=
EXTT7=
EXTT8=
EXTT9=
EXTT10=
EXTT11=
EXTT12=
EXTT13=
EXTT14=
EXTT15=
PLAYORDER=
